<svg width="22" height="20" viewBox="0 0 22 20" fill="none" xmlns="http://www.w3.org/2000/svg">
<path d="M3.02564 9.26018L3.49524 9.28309L3.54697 8.81579C3.66051 7.78999 3.98567 6.79891 4.50188 5.90522C5.01809 5.01153 5.71412 4.23467 6.54596 3.62378L6.92691 3.34401L6.669 2.94794L5.55917 1.24357C5.42436 0.990416 5.50637 0.702503 5.74105 0.56887C6.00685 0.427396 6.29094 0.511978 6.4321 0.742658L7.35476 2.54829L7.56768 2.96496L7.99753 2.78011C8.94597 2.37223 9.96757 2.16188 11 2.16188C12.0324 2.16188 13.054 2.37223 14.0025 2.78011L14.4323 2.96496L14.6452 2.54829L15.5679 0.742664C15.7091 0.511979 15.9932 0.427394 16.259 0.568871C16.4936 0.702505 16.5756 0.990416 16.4408 1.24357L15.331 2.94794L15.0731 3.34401L15.454 3.62378C16.2859 4.23467 16.9819 5.01153 17.4981 5.90522C18.0143 6.79891 18.3395 7.78999 18.453 8.81579L18.5048 9.28309L18.9744 9.26018L21.0101 9.16088C21.139 9.16348 21.2622 9.21584 21.3536 9.30723C21.4473 9.40099 21.5 9.52817 21.5 9.66078C21.5 9.79339 21.4473 9.92056 21.3536 10.0143C21.2622 10.1057 21.139 10.1581 21.0101 10.1607L18.9744 10.0614L18.5048 10.0385L18.453 10.5058C18.3395 11.5316 18.0143 12.5226 17.4981 13.4163C16.9819 14.31 16.2859 15.0869 15.454 15.6978L15.0731 15.9775L15.331 16.3736L16.4408 18.078C16.5756 18.3311 16.4936 18.619 16.259 18.7527C15.9932 18.8942 15.7091 18.8096 15.5679 18.5789L14.6452 16.7733L14.4323 16.3566L14.0025 16.5415C13.054 16.9493 12.0324 17.1597 11 17.1597C9.96757 17.1597 8.94597 16.9493 7.99753 16.5415L7.56768 16.3566L7.35476 16.7733L6.4321 18.5789C6.29094 18.8096 6.00683 18.8942 5.74103 18.7527C5.50636 18.619 5.42436 18.3311 5.55917 18.078L6.669 16.3736L6.92691 15.9775L6.54596 15.6978C5.71412 15.0869 5.01809 14.31 4.50188 13.4163C3.98567 12.5226 3.66051 11.5316 3.54697 10.5058L3.49524 10.0385L3.02564 10.0614L0.989905 10.1607C0.860952 10.1581 0.737833 10.1057 0.646447 10.0143C0.552678 9.92056 0.5 9.79339 0.5 9.66078C0.5 9.52817 0.552678 9.40099 0.646447 9.30723C0.737833 9.21584 0.860952 9.16348 0.989905 9.16088L3.02564 9.26018ZM8.0452 9.51016L8.4703 9.53128L8.55902 9.115C8.66521 8.6167 8.93554 8.17052 9.32868 7.82756L9.6566 7.54151L9.41854 7.17724L7.75854 4.63724L7.46332 4.18552L7.03539 4.51428C5.67683 5.558 4.78526 7.09586 4.55455 8.79345L4.48121 9.33314L5.0252 9.36016L8.0452 9.51016ZM11.747 7.27679L12.1511 7.40669L12.3449 7.029L13.7249 4.339L13.9724 3.85644L13.4714 3.64885C12.7113 3.33398 11.8764 3.16078 11 3.16078C10.1236 3.16078 9.28866 3.33398 8.52863 3.64885L8.02756 3.85644L8.27513 4.339L9.65513 7.029L9.84888 7.40669L10.253 7.27679C10.4845 7.20237 10.733 7.16078 11 7.16078C11.267 7.16078 11.5155 7.20237 11.747 7.27679ZM13.441 9.115L13.5297 9.53128L13.9548 9.51016L16.9748 9.36016L17.5188 9.33314L17.4454 8.79345C17.2147 7.09586 16.3232 5.558 14.9646 4.51428L14.5367 4.18552L14.2415 4.63724L12.5815 7.17724L12.3434 7.54151L12.6713 7.82756C13.0645 8.17052 13.3348 8.6167 13.441 9.115ZM13.9548 9.81139L13.5297 9.79028L13.441 10.2066C13.3348 10.7049 13.0645 11.151 12.6713 11.494L12.3434 11.7801L12.5815 12.1443L14.2415 14.6843L14.5367 15.136L14.9646 14.8073C16.3232 13.7636 17.2147 12.2257 17.4454 10.5281L17.5188 9.98841L16.9748 9.96139L13.9548 9.81139ZM10.2382 12.0432L9.83571 11.9183L9.64445 12.2939L8.27446 14.9839L8.02904 15.4657L8.52863 15.6727C9.28866 15.9876 10.1236 16.1608 11 16.1608C11.8764 16.1608 12.7113 15.9876 13.4714 15.6727L13.971 15.4657L13.7255 14.9839L12.3555 12.2939L12.1643 11.9183L11.7618 12.0432C11.5163 12.1194 11.2662 12.1608 11 12.1608C10.7338 12.1608 10.4837 12.1194 10.2382 12.0432ZM8.55902 10.2066L8.4703 9.79028L8.0452 9.81139L5.0252 9.96139L4.48035 9.98846L4.55466 10.5289C4.79274 12.2604 5.70218 13.7884 7.0364 14.808L7.46407 15.1349L7.75854 14.6843L9.41854 12.1443L9.6566 11.7801L9.32868 11.494C8.93554 11.151 8.66521 10.7049 8.55902 10.2066Z" fill="#15AEAC" stroke="black"/>
</svg>
